<svg width="640" height="220" viewBox="0 0 640 220" fill="none" xmlns="http://www.w3.org/2000/svg">
  <rect width="640" height="220" rx="28" fill="url(#bg)"/>
  <g opacity="0.18">
    <path d="M24 52C140 10 247 4 360 28C474 52 548 42 616 18" stroke="white" stroke-width="10" stroke-linecap="round"/>
    <path d="M24 92C140 50 247 44 360 68C474 92 548 82 616 58" stroke="white" stroke-width="10" stroke-linecap="round"/>
  </g>
  <g transform="translate(28 36)">
    <circle cx="48" cy="38" r="10" fill="#F28C28"/>
    <circle cx="67" cy="24" r="8" fill="#F28C28"/>
    <circle cx="89" cy="18" r="7" fill="#F28C28"/>
    <circle cx="110" cy="24" r="8" fill="#F28C28"/>
    <circle cx="127" cy="39" r="10" fill="#F28C28"/>
    <circle cx="123" cy="63" r="11" fill="#F28C28"/>
    <circle cx="104" cy="80" r="8" fill="#F28C28"/>
    <circle cx="81" cy="87" r="7" fill="#F28C28"/>
    <circle cx="60" cy="81" r="8" fill="#F28C28"/>
    <circle cx="43" cy="64" r="10" fill="#F28C28"/>
    <path d="M27 16C55 -4 103 -7 138 18" stroke="white" stroke-width="9" stroke-linecap="round"/>
    <path d="M31 90C63 110 111 107 144 82" stroke="white" stroke-width="9" stroke-linecap="round"/>
  </g>
  <text x="188" y="84" fill="#F28C28" font-family="Segoe UI, Arial, sans-serif" font-size="58" font-weight="800">RETAIL</text>
  <text x="410" y="84" fill="#D9E1EA" font-family="Segoe UI, Arial, sans-serif" font-size="58" font-weight="300">CONSULT</text>
  <rect x="188" y="112" width="356" height="56" rx="18" fill="#0F2A66"/>
  <text x="208" y="150" fill="white" font-family="Segoe UI, Arial, sans-serif" font-size="30" font-weight="800">1.º CAMPEONATO DE KARTING</text>
  <rect x="188" y="172" width="244" height="28" rx="14" fill="#F28C28"/>
  <text x="212" y="193" fill="white" font-family="Segoe UI, Arial, sans-serif" font-size="20" font-weight="800">CMS EDITION</text>
  <defs>
    <linearGradient id="bg" x1="0" y1="0" x2="640" y2="220" gradientUnits="userSpaceOnUse">
      <stop stop-color="#153E8A"/>
      <stop offset="0.5" stop-color="#1E5FAF"/>
      <stop offset="1" stop-color="#74B2F4"/>
    </linearGradient>
  </defs>
</svg>
